<svg xmlns="http://www.w3.org/2000/svg" viewBox="0 0 512 512">
  <rect width="512" height="512" rx="64" fill="#212529"/>
  <!-- LED matrix grid -->
  <g fill="none" stroke="#198754" stroke-width="2" opacity="0.3">
    <line x1="128" y1="128" x2="384" y2="128"/>
    <line x1="128" y1="170" x2="384" y2="170"/>
    <line x1="128" y1="212" x2="384" y2="212"/>
    <line x1="128" y1="254" x2="384" y2="254"/>
    <line x1="128" y1="296" x2="384" y2="296"/>
    <line x1="128" y1="338" x2="384" y2="338"/>
    <line x1="128" y1="380" x2="384" y2="380"/>
    <line x1="128" y1="128" x2="128" y2="380"/>
    <line x1="170" y1="128" x2="170" y2="380"/>
    <line x1="212" y1="128" x2="212" y2="380"/>
    <line x1="254" y1="128" x2="254" y2="380"/>
    <line x1="296" y1="128" x2="296" y2="380"/>
    <line x1="338" y1="128" x2="338" y2="380"/>
    <line x1="380" y1="128" x2="380" y2="380"/>
  </g>
  <!-- LED dots simulating 'L' character -->
  <g fill="#0f0" opacity="0.9">
    <circle cx="148" cy="148" r="8"/>
    <circle cx="148" cy="190" r="8"/>
    <circle cx="148" cy="232" r="8"/>
    <circle cx="148" cy="274" r="8"/>
    <circle cx="148" cy="316" r="8"/>
    <circle cx="148" cy="358" r="8"/>
    <circle cx="190" cy="358" r="8"/>
    <circle cx="232" cy="358" r="8"/>
    <circle cx="274" cy="358" r="8"/>
    <circle cx="316" cy="358" r="8"/>
    <circle cx="358" cy="358" r="8"/>
  </g>
</svg>
